<?xml version="1.0" standalone="no"?>
<!DOCTYPE svg PUBLIC "-//W3C//DTD SVG 20010904//EN"
 "http://www.w3.org/TR/2001/REC-SVG-20010904/DTD/svg10.dtd">
<svg version="1.0" xmlns="http://www.w3.org/2000/svg"
 width="16.000000pt" height="16.000000pt" viewBox="0 0 16.000000 16.000000"
 preserveAspectRatio="xMidYMid meet">
<metadata>
Created by potrace 1.11, written by Peter Selinger 2001-2013
</metadata>
<g transform="translate(0.000000,16.000000) scale(0.002286,-0.002286)"
fill="#000000" stroke="none">
<path d="M3458 6435 c-2 -2 -55 -5 -118 -8 -303 -15 -693 -106 -947 -223 -30
-13 -56 -24 -60 -24 -7 0 -185 -89 -260 -131 -390 -216 -762 -559 -1020 -939
-187 -276 -349 -650 -408 -945 -3 -16 -8 -37 -10 -45 -2 -8 -4 -20 -4 -26 -1
-7 -26 -11 -63 -11 -35 -1 -68 -1 -74 -2 -7 -1 -10 -167 -10 -536 l-1 -535 36
-1 c20 -1 51 0 68 1 18 1 33 -2 34 -7 6 -61 61 -288 95 -394 229 -714 673
-1273 1296 -1633 103 -59 323 -166 342 -166 7 0 16 -4 22 -8 29 -25 281 -106
449 -146 97 -22 243 -49 338 -61 185 -25 538 -25 717 0 207 28 456 84 585 132
123 46 158 60 233 95 46 21 86 38 88 38 23 0 413 242 456 282 7 8 33 29 58 48
106 81 309 276 391 374 13 16 29 34 34 40 150 167 340 468 453 721 44 99 128
323 137 367 2 9 13 51 25 94 12 42 24 86 26 98 25 131 22 126 57 124 18 0 44
0 60 1 l27 1 0 535 c0 294 -3 535 -7 536 -5 0 -34 2 -65 3 -31 1 -59 4 -61 6
-2 3 -14 46 -26 97 -78 328 -227 665 -423 957 -361 539 -876 925 -1527 1145
-84 29 -267 77 -331 87 -14 3 -36 7 -50 9 -58 12 -76 15 -124 21 -28 3 -62 7
-76 9 -49 7 -358 24 -362 20z m232 -739 c41 -4 87 -8 103 -11 15 -3 55 -10 90
-15 501 -86 1020 -391 1327 -780 28 -36 56 -72 63 -80 14 -17 72 -105 109
-165 85 -137 166 -318 221 -492 30 -95 42 -143 72 -293 6 -26 11 -69 24 -189
11 -109 4 -344 -14 -451 -2 -14 -6 -41 -9 -60 -31 -194 -94 -392 -193 -600
-34 -70 -159 -289 -173 -300 -3 -3 -23 -30 -44 -60 -191 -269 -486 -523 -786
-676 -158 -80 -387 -158 -525 -179 -22 -3 -47 -7 -55 -10 -60 -17 -215 -29
-385 -29 -199 0 -278 9 -525 60 -130 26 -377 117 -517 190 -113 59 -147 78
-153 84 -3 3 -30 21 -60 40 -88 56 -238 179 -329 271 -326 329 -543 787 -606
1278 -62 477 26 944 252 1346 30 54 123 190 189 276 51 67 228 248 309 316 33
27 96 75 140 106 44 31 85 60 90 64 17 14 147 89 215 125 36 19 115 54 175 77
61 24 126 49 145 57 33 13 206 58 260 68 14 2 41 7 60 11 58 11 90 14 190 21
52 4 96 7 97 8 4 3 170 -2 243 -8z"/>
<path d="M3204 4892 l-41 -3 0 -863 1 -862 335 0 336 1 1 863 c0 599 -3 862
-10 862 -54 3 -591 4 -622 2z"/>
<path d="M3163 2445 c0 -333 0 -335 21 -336 12 0 163 -1 337 -2 l315 -2 0 338
0 337 -336 0 -337 0 0 -335z"/>
</g>
</svg>
